<svg xmlns="http://www.w3.org/2000/svg" viewBox="0 0 100 100">
  <rect width="100" height="100" rx="50" fill="#191E38" />
  <g clip-path="url(#clip0_130_372)">
    <path
      d="M27.5464 22H37.203C37.516 22.0665 37.7808 22.3166 37.8506 22.6301C37.9298 22.9206 37.827 23.2132 37.7646 23.4958C37.1867 25.9802 36.6021 28.463 36.0284 30.9485C35.9634 30.9846 35.8984 31.0202 35.8318 31.0532L35.792 31.0704C35.7836 31.0741 35.7668 31.0814 35.7589 31.0851C35.6436 31.1353 35.5292 31.1861 35.4144 31.2369C35.3955 31.2458 35.3578 31.2641 35.3384 31.2735L35.3148 31.284C35.3106 31.2861 35.3022 31.2897 35.298 31.2913C35.179 31.341 35.0599 31.3907 34.943 31.4452C34.9399 31.4467 34.9331 31.4499 34.9299 31.4514L34.8408 31.4928C34.8371 31.4949 34.8287 31.4991 34.8245 31.5006L34.7317 31.5446C34.7128 31.5551 34.6751 31.5755 34.6562 31.5859L34.6321 31.5969C34.6284 31.599 34.62 31.6027 34.6163 31.6043C34.4611 31.6692 34.3101 31.7409 34.1581 31.811C34.1539 31.8131 34.1455 31.8167 34.1413 31.8188L34.1182 31.8304C34.0988 31.8398 34.0605 31.8586 34.0416 31.868L33.9467 31.912C33.9425 31.9136 33.9347 31.9178 33.9305 31.9193L33.8408 31.9617C33.8366 31.9638 33.8277 31.968 33.823 31.9701L33.7365 32.0114C33.7323 32.0135 33.7244 32.0172 33.7202 32.0193L33.6321 32.0606C33.6279 32.0627 33.619 32.0669 33.6143 32.069L33.5514 32.0978C33.5241 32.1119 33.469 32.1407 33.4413 32.1548C33.3862 32.1784 33.3317 32.2025 33.2777 32.2276C33.2698 32.2318 33.2535 32.2391 33.2457 32.2433C33.1827 32.2731 33.1198 32.3035 33.0574 32.3344C33.0538 32.3359 33.0475 32.3391 33.0438 32.3412C32.9447 32.3945 32.844 32.4443 32.7423 32.4919C32.7381 32.494 32.7302 32.4982 32.7266 32.4997L32.7035 32.5118C32.6851 32.5217 32.649 32.5421 32.6311 32.5526C32.5032 32.6144 32.3768 32.6787 32.2499 32.741C32.1823 32.7473 32.1073 32.7661 32.0764 32.8336C31.8535 32.9362 31.6369 33.0519 31.4204 33.167C31.4026 33.1764 31.3674 33.1963 31.3501 33.2063L31.3286 33.2194C31.3239 33.2225 31.3139 33.2283 31.3092 33.2309L31.2872 33.244C31.2678 33.2529 31.2295 33.2701 31.2101 33.2785L31.1183 33.3267C31.1147 33.3287 31.1063 33.3329 31.1021 33.3356L31.0177 33.3806C31.014 33.3827 31.0072 33.3863 31.0035 33.3884C30.8174 33.4884 30.6312 33.5873 30.4451 33.6873C30.4367 33.6914 30.4204 33.7003 30.412 33.7045C30.1635 33.8348 29.9207 33.9746 29.6753 34.1096C29.3161 34.298 28.9664 34.5042 28.6208 34.7146C28.9784 34.5696 29.3188 34.3833 29.6596 34.2028C30.0324 34.0107 30.4131 33.8343 30.7901 33.6501C30.7932 33.648 30.8006 33.6449 30.8043 33.6428L30.8934 33.5993C30.8981 33.5972 30.9076 33.593 30.9123 33.5904L31.0009 33.548C31.0046 33.5459 31.013 33.5423 31.0171 33.5402L31.1042 33.4988C31.1079 33.4973 31.1152 33.4936 31.1189 33.492C31.3024 33.4062 31.4875 33.323 31.671 33.2372C31.6794 33.2335 31.6957 33.2256 31.7035 33.222C31.8881 33.1372 32.0727 33.0519 32.2578 32.9676C32.2614 32.9661 32.2683 32.9629 32.2719 32.9613L32.3606 32.9216C32.3647 32.9195 32.3731 32.9158 32.3773 32.9142L32.4429 32.8855C32.4712 32.8718 32.5273 32.8452 32.5551 32.8321C32.6122 32.809 32.6684 32.7855 32.725 32.7614C32.7302 32.7588 32.7407 32.7541 32.746 32.752C32.8026 32.7269 32.8597 32.7018 32.9169 32.6777C32.9442 32.6641 32.9987 32.6374 33.026 32.6243C33.2116 32.5536 33.3904 32.4668 33.5739 32.3904C33.5917 32.3809 33.6285 32.3616 33.6468 32.3521L33.6704 32.3427C33.6741 32.3406 33.6825 32.3375 33.6867 32.3359C33.7207 32.3228 33.7889 32.2972 33.823 32.2841C33.8277 32.2825 33.8366 32.2789 33.8413 32.2768C33.8995 32.2527 33.9583 32.2281 34.017 32.2035C34.0453 32.191 34.1009 32.1653 34.1287 32.1527C34.2157 32.1208 34.3012 32.0858 34.3872 32.0507C34.415 32.0376 34.4711 32.0109 34.4994 31.9978L34.5634 31.9758C34.567 31.9743 34.5744 31.9717 34.5786 31.9706L34.6436 31.9465C34.6719 31.9319 34.7275 31.9031 34.7553 31.8884L34.8298 31.868C34.8486 31.8591 34.8864 31.8408 34.9058 31.8319L34.9289 31.8199C34.9336 31.8173 34.9425 31.8126 34.9472 31.8099L34.9661 31.8C35.0065 31.7859 35.0872 31.7576 35.1276 31.7435L35.1937 31.7194C35.1973 31.7178 35.2057 31.7147 35.2099 31.7131L35.2781 31.689C35.3048 31.6744 35.3588 31.6461 35.3861 31.6315L35.4328 31.6336C35.4595 31.6194 35.5135 31.5912 35.5403 31.577C35.5911 31.5603 35.642 31.543 35.6934 31.5263C35.7217 31.5127 35.7778 31.486 35.8056 31.4724L35.8895 31.4431C35.8942 31.4881 35.8911 31.5326 35.8806 31.5765C35.4307 33.4931 34.985 35.4112 34.5372 37.3283C34.5172 37.5413 34.4564 37.747 34.4134 37.9563C34.3489 38.2662 34.4281 38.6184 34.6693 38.8351C34.8586 39.0146 35.1276 39.0742 35.3819 39.068C39.0529 39.0674 42.724 39.0685 46.3955 39.0674C46.6131 39.068 46.8417 39.0554 47.0462 39.1454C47.311 39.2538 47.5035 39.5076 47.5475 39.7892C47.6057 40.111 47.472 40.423 47.4133 40.7349C46.2083 45.8989 45.0039 51.0629 43.7984 56.227C43.6835 56.7791 43.242 57.2449 42.6993 57.3972C42.4508 57.4663 42.1902 57.4433 41.9353 57.4469C37.1915 57.4485 32.4481 57.4438 27.7048 57.4496C27.6911 57.2931 27.699 57.1361 27.6974 56.9796C29.001 56.6886 30.3093 56.25 31.3753 55.4221C32.2331 54.7678 32.8755 53.8305 33.1434 52.7843C34.0212 49.0145 34.9032 45.2452 35.7809 41.4754C35.8659 41.1169 35.7385 40.6972 35.4149 40.4988C35.1737 40.3387 34.8738 40.3513 34.5964 40.3539C31.9584 40.3539 29.3198 40.3549 26.6818 40.3539C26.5963 40.3596 26.505 40.3371 26.4243 40.3685C24.9236 41.6597 23.4973 43.0408 22.2095 44.545C20.928 46.025 19.7823 47.6297 18.8688 49.3625C17.7991 51.3984 17.053 53.6515 17.0247 55.9669C16.9827 58.177 17.6874 60.3909 19.0067 62.1672C20.1918 63.7844 21.8084 65.0441 23.5592 66.0019C25.4532 67.0245 27.5045 67.7389 29.5998 68.2225C29.5951 68.2628 29.5862 68.3423 29.582 68.3826C29.3885 69.1755 29.2097 69.9716 29.0225 70.7661C27.6471 70.5808 26.2853 70.295 24.9461 69.9334C23.0847 69.4173 21.2625 68.7249 19.5898 67.753C17.8778 66.7613 16.3147 65.4565 15.2078 63.8053C13.9435 61.951 13.3536 59.666 13.5162 57.4323C13.6609 55.1729 14.4616 53.0025 15.5507 51.0331C16.5606 49.2144 17.8212 47.5433 19.2128 45.9989C21.0942 43.9075 23.2247 42.0522 25.4652 40.3549C24.8082 40.3513 24.1507 40.3581 23.4937 40.3518C23.1728 40.3513 22.8487 40.1764 22.7087 39.8823C22.5776 39.629 22.597 39.3307 22.6725 39.0643C23.9111 33.7616 25.1464 28.4573 26.386 23.1545C26.5155 22.5909 26.9896 22.1397 27.5464 22Z"
      fill="white" />
    <path
      d="M74.9153 58.5246C75.1959 58.3587 75.4549 58.152 75.7511 58.0138C74.8319 58.7099 73.8635 59.341 72.896 59.9686C67.7017 63.272 62.0455 65.8229 56.1931 67.7212C51.0785 69.3698 45.7909 70.5128 40.4341 70.9906C40.4409 70.9487 40.4545 70.8655 40.4608 70.8242C40.5956 70.2783 40.7172 69.7298 40.8473 69.1834C43.8969 69.0604 46.9361 68.7077 49.9365 68.1477C54.5304 67.292 59.0357 65.9794 63.3884 64.2837C67.3934 62.7152 71.2705 60.8096 74.9153 58.5246Z"
      fill="white" />
    <path
      d="M54.6581 22H69.4707C69.4691 22.1497 69.477 22.2994 69.4618 22.4485C68.6344 22.6301 67.819 22.885 67.0576 23.2592C66.3025 23.6214 65.6088 24.1285 65.0766 24.778C68.1173 24.8529 71.1639 25.1857 74.1107 25.9551C76.2968 26.5323 78.4377 27.3498 80.3543 28.5604C82.0264 29.615 83.5245 30.9993 84.5255 32.7154C85.2963 34.0133 85.7452 35.4887 85.88 36.9892V38.6294C85.7263 40.6888 85.0447 42.6781 84.0919 44.501C83.103 46.3951 81.8293 48.1285 80.4203 49.731C77.7587 52.7335 74.6162 55.2802 71.2818 57.5019C71.2084 57.5511 71.1366 57.6055 71.0485 57.6218C71.0684 57.5856 71.0957 57.5553 71.1292 57.5312C73.5245 55.7277 75.7782 53.7232 77.7508 51.4628C79.142 49.8582 80.3957 48.1232 81.3658 46.2313C82.3384 44.3314 83.0248 42.2526 83.1176 40.1095C83.179 38.7058 82.9719 37.2854 82.4659 35.9723C81.7821 34.1473 80.5425 32.5636 79.0402 31.3347C77.4326 30.0101 75.5501 29.055 73.6005 28.3411C70.5766 27.2493 67.3759 26.7197 64.1757 26.5025C63.5219 29.302 62.8696 32.102 62.2157 34.902C61.9766 35.9539 61.7065 37.0002 61.511 38.0605C61.468 38.4017 61.6211 38.7733 61.9304 38.9434C62.1622 39.0831 62.4422 39.069 62.7033 39.068C66.3733 39.0674 70.0433 39.0674 73.7133 39.068C73.976 39.0612 74.2534 39.1391 74.4364 39.3365C74.6744 39.5798 74.7211 39.9556 74.6335 40.2738C73.4044 45.5425 72.1748 50.8112 70.9457 56.0799C70.8482 56.8221 70.1812 57.4668 69.4156 57.447C66.3922 57.447 63.3693 57.448 60.3464 57.4464C60.0795 57.4511 59.8005 57.359 59.6233 57.1528C59.4098 56.9157 59.3658 56.5688 59.4418 56.2683C60.5923 51.3377 61.7438 46.4076 62.8937 41.477C62.9786 41.1175 62.8507 40.6962 62.5256 40.4978C62.2686 40.3277 61.9493 40.3544 61.6567 40.3544C58.003 40.3544 54.3493 40.3544 50.6955 40.3539C50.4339 40.3612 50.1586 40.2879 49.9735 40.0948C49.7334 39.8582 49.6772 39.4882 49.7601 39.1716C50.7055 35.1187 51.6525 31.0662 52.5969 27.0128C46.8803 27.8329 41.2686 29.3475 35.8903 31.4431L35.8064 31.4724C35.7786 31.486 35.7225 31.5127 35.6942 31.5263C35.6428 31.543 35.5919 31.5603 35.5411 31.577L35.4949 31.5671C35.4792 31.5839 35.4488 31.6168 35.4336 31.6336L35.3869 31.6315C35.3597 31.6461 35.3056 31.6744 35.2789 31.689L35.2107 31.7131C35.2065 31.7147 35.1982 31.7178 35.1945 31.7194L35.1284 31.7435C35.088 31.7576 35.0073 31.7859 34.9669 31.8L34.948 31.8099C34.9433 31.8126 34.9344 31.8173 34.9297 31.8199L34.9066 31.8319C34.8872 31.8408 34.8495 31.8591 34.8306 31.868L34.7561 31.8884C34.7283 31.9031 34.6727 31.9319 34.6444 31.9465L34.5794 31.9706C34.5752 31.9717 34.5679 31.9743 34.5642 31.9759L34.5002 31.9978C34.4719 32.0109 34.4158 32.0376 34.388 32.0507C34.302 32.0858 34.2166 32.1208 34.1295 32.1527L34.0839 32.1412C34.0676 32.1564 34.0346 32.1878 34.0178 32.2035C33.9591 32.2281 33.9004 32.2527 33.8422 32.2768C33.8374 32.2789 33.8285 32.2825 33.8238 32.2841C33.7897 32.2972 33.7216 32.3228 33.6875 32.3359C33.6833 32.3375 33.6749 32.3406 33.6712 32.3427L33.6476 32.3522C33.6293 32.3616 33.5926 32.3809 33.5747 32.3904C33.3912 32.4668 33.2124 32.5536 33.0268 32.6243L32.9812 32.6138C32.9649 32.6295 32.9335 32.6615 32.9177 32.6777C32.8606 32.7018 32.8034 32.7269 32.7468 32.752C32.7415 32.7541 32.7311 32.7588 32.7258 32.7614C32.6692 32.7855 32.6131 32.809 32.5559 32.8321L32.5103 32.8216C32.4935 32.8373 32.4605 32.8692 32.4437 32.8855L32.3782 32.9142C32.374 32.9158 32.3656 32.9195 32.3614 32.9216L32.2728 32.9613C32.2691 32.9629 32.2623 32.9661 32.2586 32.9676C32.0735 33.0519 31.8889 33.1372 31.7044 33.222C31.6965 33.2256 31.6802 33.2335 31.6719 33.2372C31.4883 33.323 31.3032 33.4062 31.1197 33.492C31.116 33.4936 31.1087 33.4973 31.105 33.4988L31.018 33.5402C31.0138 33.5423 31.0054 33.5459 31.0017 33.548L30.9131 33.5904C30.9084 33.593 30.8989 33.5972 30.8942 33.5993L30.8051 33.6428C30.8014 33.6449 30.7941 33.648 30.7909 33.6501C30.4139 33.8343 30.0332 34.0107 29.6604 34.2028L29.5786 34.2064C29.6027 34.1824 29.6515 34.1342 29.6761 34.1096C29.9215 33.9746 30.1643 33.8348 30.4129 33.7045C30.4213 33.7003 30.4375 33.6914 30.4459 33.6873C30.632 33.5873 30.8182 33.4884 31.0043 33.3884C31.008 33.3863 31.0148 33.3827 31.0185 33.3806L31.1029 33.3356C31.1071 33.3329 31.1155 33.3287 31.1192 33.3267L31.2109 33.2785C31.2303 33.2701 31.2686 33.2529 31.288 33.244L31.31 33.2309C31.3148 33.2283 31.3247 33.2225 31.3294 33.2194L31.3509 33.2063C31.3682 33.1963 31.4034 33.1764 31.4212 33.167C31.6378 33.0519 31.8543 32.9362 32.0772 32.8336C32.1558 32.8902 32.2345 32.8195 32.2507 32.741C32.3776 32.6787 32.504 32.6144 32.6319 32.5526C32.6498 32.5421 32.686 32.5217 32.7043 32.5118L32.7274 32.4997C32.7311 32.4982 32.7389 32.494 32.7431 32.4919C32.8448 32.4443 32.9455 32.3945 33.0446 32.3412C33.0483 32.3391 33.0546 32.3359 33.0583 32.3344C33.1207 32.3035 33.1836 32.2731 33.2465 32.2433C33.2544 32.2391 33.2706 32.2318 33.2785 32.2276C33.3325 32.2025 33.387 32.1784 33.4421 32.1548L33.4882 32.1637C33.5045 32.147 33.5365 32.1145 33.5522 32.0978L33.6151 32.069C33.6198 32.0669 33.6288 32.0627 33.6329 32.0606L33.721 32.0193C33.7252 32.0172 33.7331 32.0135 33.7373 32.0114L33.8238 31.9701C33.8285 31.968 33.8374 31.9638 33.8416 31.9617L33.9313 31.9193C33.9355 31.9178 33.9434 31.9136 33.9476 31.912L34.0425 31.868C34.0613 31.8586 34.0996 31.8398 34.119 31.8304L34.1421 31.8188C34.1463 31.8167 34.1547 31.8131 34.1589 31.811C34.3109 31.7409 34.462 31.6692 34.6172 31.6043C34.6208 31.6027 34.6292 31.599 34.6329 31.5969L34.657 31.5859C34.6759 31.5755 34.7136 31.5551 34.7325 31.5446L34.8253 31.5006C34.8295 31.4991 34.8379 31.4949 34.8416 31.4928L34.9307 31.4514C34.9339 31.4499 34.9407 31.4467 34.9438 31.4452C35.0608 31.3907 35.1798 31.341 35.2988 31.2913C35.303 31.2897 35.3114 31.2861 35.3156 31.284L35.3392 31.2735C35.3586 31.2641 35.3964 31.2458 35.4152 31.2369C35.5301 31.1861 35.6444 31.1353 35.7597 31.0851C35.7676 31.0814 35.7844 31.0741 35.7928 31.0704L35.8326 31.0532C41.2912 28.6692 47.0167 26.8861 52.8784 25.8101C53.085 24.9246 53.2906 24.039 53.4988 23.154C53.6283 22.5909 54.1018 22.1403 54.6581 22Z"
      fill="white" />
    <path
      d="M35.4331 31.6337C35.4483 31.6169 35.4788 31.5839 35.4946 31.5671L35.5408 31.577C35.514 31.5912 35.4599 31.6195 35.4331 31.6337Z"
      fill="white" />
    <path
      d="M33.4414 32.155C33.4692 32.1408 33.5244 32.112 33.5517 32.0978C33.536 32.1146 33.5039 32.1471 33.4876 32.1639L33.4414 32.155Z"
      fill="white" />
    <path
      d="M34.0171 32.2036C34.0339 32.1879 34.067 32.1564 34.0833 32.1412L34.129 32.1528C34.1011 32.1654 34.0455 32.191 34.0171 32.2036Z"
      fill="white" />
    <path
      d="M32.9175 32.6778C32.9332 32.6615 32.9648 32.6296 32.981 32.6138L33.0267 32.6243C32.9994 32.6374 32.9448 32.6642 32.9175 32.6778Z"
      fill="white" />
    <path
      d="M32.0767 32.8337C32.1076 32.7661 32.1826 32.7473 32.2502 32.741C32.234 32.8195 32.1553 32.8902 32.0767 32.8337Z"
      fill="white" />
    <path
      d="M32.4429 32.8855C32.4597 32.8692 32.4928 32.8373 32.5096 32.8215L32.5553 32.832C32.5274 32.8451 32.4712 32.8719 32.4429 32.8855Z"
      fill="white" />
    <path
      d="M28.6216 34.7146C28.9671 34.5042 29.3169 34.298 29.6761 34.1096C29.6514 34.1342 29.6027 34.1824 29.5785 34.2064L29.6603 34.2028C29.3195 34.3833 28.9792 34.5697 28.6216 34.7146Z"
      fill="white" />
    <path
      d="M48.8903 43.7176C49.0303 43.0388 49.6768 42.4871 50.379 42.5007C53.4019 42.5007 56.4243 42.5002 59.4472 42.5013C59.7639 42.4897 60.0964 42.63 60.2615 42.909C60.4115 43.1502 60.4199 43.4527 60.3491 43.7212C59.1064 49.0407 57.8668 54.3612 56.6241 59.6807C56.4783 60.3475 55.8428 60.8886 55.1511 60.8802C51.5677 60.8813 47.9842 60.8802 44.4008 60.8808C44.0935 60.885 43.7736 60.852 43.4816 60.9687C43.0159 61.1466 42.6353 61.5522 42.5167 62.0395C41.9588 64.4203 41.4072 66.8026 40.8477 69.1834C40.7177 69.7298 40.596 70.2783 40.4613 70.8242C40.0198 72.7674 39.5567 74.707 39.1079 76.6492C39.0004 77.3563 38.367 77.966 37.6381 77.9723C34.5984 77.9754 31.5587 77.9733 28.519 77.9733C28.2511 77.978 27.9711 77.8849 27.7938 77.6771C27.5809 77.439 27.5379 77.0909 27.6155 76.79C28.0848 74.7819 28.5499 72.7732 29.0229 70.7661C29.2101 69.9716 29.3889 69.1756 29.5824 68.3827C30.1582 65.8616 30.7559 63.3458 31.3401 60.8269C31.4748 60.1496 32.1088 59.5917 32.8088 59.5943C36.5333 59.5922 40.2583 59.5943 43.9828 59.5933C44.5261 59.6038 45.0389 59.2714 45.3042 58.8077C45.4254 58.6031 45.472 58.3671 45.525 58.1383C46.6471 53.3318 47.7682 48.5247 48.8903 43.7176Z"
      fill="white" />
  </g>
  <defs>
    <clipPath id="clip0_130_372">
      <rect width="72.4138" height="56" fill="white" transform="translate(13.4653 22)" />
    </clipPath>
  </defs>
</svg>